<svg xmlns="http://www.w3.org/2000/svg" viewBox="0 0 470 150" width="470" height="150" role="img" aria-label="quackd">
  <title>quackd</title>
  <!-- Variant A3: shorter, more under the head -->
  <g transform="translate(8,6)">
    <g fill="none" stroke="#2B2B30" stroke-width="9" stroke-linecap="round" stroke-linejoin="round">
      <polyline points="58,96 50,116 62,130"/>
      <polyline points="84,96 78,116 92,130"/>
    </g>
    <circle cx="50" cy="116" r="5.5" fill="#55555C"/>
    <circle cx="78" cy="116" r="5.5" fill="#55555C"/>
    <rect x="46" y="126" width="34" height="13" rx="6.5" fill="#F5C518"/>
    <rect x="78" y="126" width="34" height="13" rx="6.5" fill="#F5C518"/>
    <circle cx="74" cy="132.5" r="3" fill="#2B2B30"/>
    <circle cx="106" cy="132.5" r="3" fill="#2B2B30"/>
    <rect x="34" y="60" width="66" height="40" rx="16" fill="#B7A6DF"/>
    <rect x="42" y="66" width="18" height="10" rx="5" fill="#2B2B30" opacity="0.35"/>
    <rect x="70" y="34" width="11" height="32" rx="4" fill="#2B2B30"/>
    <circle cx="75.5" cy="46" r="4" fill="#55555C"/>
    <circle cx="75.5" cy="58" r="4" fill="#55555C"/>
    <g transform="rotate(-8 92 26)">
      <g>
        <rect x="72" y="43" width="58" height="13" rx="6.5" fill="#F5C518"/>
        <path d="M80 49.5 L124 49.5" stroke="#D9A50E" stroke-width="2" stroke-linecap="round"/>
      </g>
      <rect x="54" y="2" width="78" height="46" rx="23" fill="#B7A6DF"/>
      <rect x="64" y="16" width="70" height="30" rx="15" fill="#2B2B30"/>
      <circle cx="104" cy="30" r="12.5" fill="#FFFFFF"/>
      <circle cx="104" cy="30" r="8.5" fill="#F5C518"/>
      <circle cx="104" cy="30" r="4" fill="#1A1A1E"/>
      <circle cx="106.5" cy="27.5" r="1.6" fill="#FFFFFF"/>
    </g>
  </g>
  <text x="190" y="98" font-family="Inter, 'Segoe UI', Helvetica, Arial, sans-serif" font-size="66" font-weight="800" fill="#F5C518" letter-spacing="-1.5">quack<tspan fill="#9C86D6">d</tspan></text>
</svg>
